<!--?xml version="1.0" standalone="no"?-->
              <svg id="sw-js-blob-svg" viewBox="0 0 100 100" xmlns="http://www.w3.org/2000/svg" version="1.1">
                    <defs> 
                        <linearGradient id="sw-gradient" x1="0" x2="1" y1="1" y2="0">
                            <stop id="stop1" stop-color="rgba(248, 117, 55, 1)" offset="0%"></stop>
                            <stop id="stop2" stop-color="rgba(251, 168, 31, 1)" offset="100%"></stop>
                        </linearGradient>
                    </defs>
                <path fill="url(#sw-gradient)" d="M18.2,-30.5C23.3,-25,27,-19.5,31.4,-13.3C35.8,-7.1,41,-0.3,41.8,7.2C42.6,14.7,39.1,22.8,33.2,27.7C27.3,32.6,18.9,34.3,10.9,36.2C2.9,38,-4.7,40,-12.7,39.4C-20.7,38.8,-29,35.6,-35.1,29.8C-41.2,23.9,-45.1,15.5,-44,7.7C-42.9,0,-36.8,-7,-31.8,-13C-26.7,-19,-22.7,-24,-17.5,-29.5C-12.4,-35.1,-6.2,-41.2,0.2,-41.5C6.5,-41.7,13,-36.1,18.2,-30.5Z" width="100%" height="100%" transform="translate(50 50)" stroke-width="0" style="transition: all 0.3s ease 0s;"></path>
              </svg>